<svg xmlns="http://www.w3.org/2000/svg" width="480" height="360" viewBox="0 0 480 360" shape-rendering="crispEdges"><rect x="0" y="0" width="480" height="1" fill="rgb(255,255,255)"/><rect x="0" y="1" width="480" height="1" fill="rgb(255,255,255)"/><rect x="0" y="2" width="480" height="1" fill="rgb(255,255,255)"/><rect x="0" y="3" width="480" height="1" fill="rgb(255,255,255)"/><rect x="0" y="4" width="480" height="1" fill="rgb(255,255,255)"/><rect x="0" y="5" width="480" height="1" fill="rgb(255,255,255)"/><rect x="0" y="6" width="480" height="1" fill="rgb(255,255,255)"/><rect x="0" y="7" width="480" height="1" fill="rgb(255,255,255)"/><rect x="0" y="8" width="480" height="1" fill="rgb(255,255,255)"/><rect x="0" y="9" width="480" height="1" fill="rgb(255,255,255)"/><rect x="0" y="10" width="480" height="1" fill="rgb(255,255,255)"/><rect x="0" y="11" width="480" height="1" fill="rgb(255,255,255)"/><rect x="0" y="12" width="480" height="1" fill="rgb(255,255,255)"/><rect x="0" y="13" width="480" height="1" fill="rgb(255,255,255)"/><rect x="0" y="14" width="480" height="1" fill="rgb(255,255,255)"/><rect x="0" y="15" width="480" height="1" fill="rgb(255,255,255)"/><rect x="0" y="16" width="480" height="1" fill="rgb(255,255,255)"/><rect x="0" y="17" width="480" height="1" fill="rgb(255,255,255)"/><rect x="0" y="18" width="480" height="1" fill="rgb(255,255,255)"/><rect x="0" y="19" width="480" height="1" fill="rgb(255,255,255)"/><rect x="0" y="20" width="480" height="1" fill="rgb(255,255,255)"/><rect x="0" y="21" width="480" height="1" fill="rgb(255,255,255)"/><rect x="0" y="22" width="480" height="1" fill="rgb(255,255,255)"/><rect x="0" y="23" width="480" height="1" fill="rgb(255,255,255)"/><rect x="0" y="24" width="480" height="1" fill="rgb(255,255,255)"/><rect x="0" y="25" width="480" height="1" fill="rgb(255,255,255)"/><rect x="0" y="26" width="480" height="1" fill="rgb(255,255,255)"/><rect x="0" y="27" width="480" height="1" fill="rgb(255,255,255)"/><rect x="0" y="28" width="480" height="1" fill="rgb(255,255,255)"/><rect x="0" y="29" width="480" height="1" fill="rgb(255,255,255)"/><rect x="0" y="30" width="480" height="1" fill="rgb(255,255,255)"/><rect x="0" y="31" width="480" height="1" fill="rgb(255,255,255)"/><rect x="0" y="32" width="480" height="1" fill="rgb(255,255,255)"/><rect x="0" y="33" width="480" height="1" fill="rgb(255,255,255)"/><rect x="0" y="34" width="480" height="1" fill="rgb(255,255,255)"/><rect x="0" y="35" width="480" height="1" fill="rgb(255,255,255)"/><rect x="0" y="36" width="480" height="1" fill="rgb(255,255,255)"/><rect x="0" y="37" width="480" height="1" fill="rgb(255,255,255)"/><rect x="0" y="38" width="480" height="1" fill="rgb(255,255,255)"/><rect x="0" y="39" width="480" height="1" fill="rgb(255,255,255)"/><rect x="0" y="40" width="480" height="1" fill="rgb(255,255,255)"/><rect x="0" y="41" width="480" height="1" fill="rgb(255,255,255)"/><rect x="0" y="42" width="480" height="1" fill="rgb(255,255,255)"/><rect x="0" y="43" width="480" height="1" fill="rgb(255,255,255)"/><rect x="0" y="44" width="480" height="1" fill="rgb(255,255,255)"/><rect x="0" y="45" width="480" height="1" fill="rgb(255,255,255)"/><rect x="0" y="46" width="480" height="1" fill="rgb(255,255,255)"/><rect x="0" y="47" width="480" height="1" fill="rgb(255,255,255)"/><rect x="0" y="48" width="480" height="1" fill="rgb(255,255,255)"/><rect x="0" y="49" width="480" height="1" fill="rgb(255,255,255)"/><rect x="0" y="50" width="480" height="1" fill="rgb(255,255,255)"/><rect x="0" y="51" width="480" height="1" fill="rgb(255,255,255)"/><rect x="0" y="52" width="480" height="1" fill="rgb(255,255,255)"/><rect x="0" y="53" width="480" height="1" fill="rgb(255,255,255)"/><rect x="0" y="54" width="480" height="1" fill="rgb(255,255,255)"/><rect x="0" y="55" width="480" height="1" fill="rgb(255,255,255)"/><rect x="0" y="56" width="480" height="1" fill="rgb(255,255,255)"/><rect x="0" y="57" width="480" height="1" fill="rgb(255,255,255)"/><rect x="0" y="58" width="480" height="1" fill="rgb(255,255,255)"/><rect x="0" y="59" width="480" height="1" fill="rgb(255,255,255)"/><rect x="0" y="60" width="480" height="1" fill="rgb(255,255,255)"/><rect x="0" y="61" width="480" height="1" fill="rgb(255,255,255)"/><rect x="0" y="62" width="480" height="1" fill="rgb(255,255,255)"/><rect x="0" y="63" width="480" height="1" fill="rgb(255,255,255)"/><rect x="0" y="64" width="480" height="1" fill="rgb(255,255,255)"/><rect x="0" y="65" width="480" height="1" fill="rgb(255,255,255)"/><rect x="0" y="66" width="480" height="1" fill="rgb(255,255,255)"/><rect x="0" y="67" width="480" height="1" fill="rgb(255,255,255)"/><rect x="0" y="68" width="480" height="1" fill="rgb(255,255,255)"/><rect x="0" y="69" width="480" height="1" fill="rgb(255,255,255)"/><rect x="0" y="70" width="480" height="1" fill="rgb(255,255,255)"/><rect x="0" y="71" width="480" height="1" fill="rgb(255,255,255)"/><rect x="0" y="72" width="480" height="1" fill="rgb(255,255,255)"/><rect x="0" y="73" width="480" height="1" fill="rgb(255,255,255)"/><rect x="0" y="74" width="480" height="1" fill="rgb(255,255,255)"/><rect x="0" y="75" width="480" height="1" fill="rgb(255,255,255)"/><rect x="0" y="76" width="480" height="1" fill="rgb(255,255,255)"/><rect x="0" y="77" width="480" height="1" fill="rgb(255,255,255)"/><rect x="0" y="78" width="480" height="1" fill="rgb(255,255,255)"/><rect x="0" y="79" width="480" height="1" fill="rgb(255,255,255)"/><rect x="0" y="80" width="480" height="1" fill="rgb(255,255,255)"/><rect x="0" y="81" width="480" height="1" fill="rgb(255,255,255)"/><rect x="0" y="82" width="480" height="1" fill="rgb(255,255,255)"/><rect x="0" y="83" width="480" height="1" fill="rgb(255,255,255)"/><rect x="0" y="84" width="480" height="1" fill="rgb(255,255,255)"/><rect x="0" y="85" width="480" height="1" fill="rgb(255,255,255)"/><rect x="0" y="86" width="480" height="1" fill="rgb(255,255,255)"/><rect x="0" y="87" width="480" height="1" fill="rgb(255,255,255)"/><rect x="0" y="88" width="480" height="1" fill="rgb(255,255,255)"/><rect x="0" y="89" width="480" height="1" fill="rgb(255,255,255)"/><rect x="0" y="90" width="480" height="1" fill="rgb(255,255,255)"/><rect x="0" y="91" width="480" height="1" fill="rgb(255,255,255)"/><rect x="0" y="92" width="480" height="1" fill="rgb(255,255,255)"/><rect x="0" y="93" width="480" height="1" fill="rgb(255,255,255)"/><rect x="0" y="94" width="480" height="1" fill="rgb(255,255,255)"/><rect x="0" y="95" width="480" height="1" fill="rgb(255,255,255)"/><rect x="0" y="96" width="480" height="1" fill="rgb(255,255,255)"/><rect x="0" y="97" width="480" height="1" fill="rgb(255,255,255)"/><rect x="0" y="98" width="480" height="1" fill="rgb(255,255,255)"/><rect x="0" y="99" width="480" height="1" fill="rgb(255,255,255)"/><rect x="0" y="100" width="480" height="1" fill="rgb(255,255,255)"/><rect x="0" y="101" width="480" height="1" fill="rgb(255,255,255)"/><rect x="0" y="102" width="480" height="1" fill="rgb(255,255,255)"/><rect x="0" y="103" width="480" height="1" fill="rgb(255,255,255)"/><rect x="0" y="104" width="480" height="1" fill="rgb(255,255,255)"/><rect x="0" y="105" width="480" height="1" fill="rgb(255,255,255)"/><rect x="0" y="106" width="480" height="1" fill="rgb(255,255,255)"/><rect x="0" y="107" width="480" height="1" fill="rgb(255,255,255)"/><rect x="0" y="108" width="480" height="1" fill="rgb(255,255,255)"/><rect x="0" y="109" width="480" height="1" fill="rgb(255,255,255)"/><rect x="0" y="110" width="480" height="1" fill="rgb(255,255,255)"/><rect x="0" y="111" width="480" height="1" fill="rgb(255,255,255)"/><rect x="0" y="112" width="480" height="1" fill="rgb(255,255,255)"/><rect x="0" y="113" width="480" height="1" fill="rgb(255,255,255)"/><rect x="0" y="114" width="480" height="1" fill="rgb(255,255,255)"/><rect x="0" y="115" width="480" height="1" fill="rgb(255,255,255)"/><rect x="0" y="116" width="480" height="1" fill="rgb(255,255,255)"/><rect x="0" y="117" width="480" height="1" fill="rgb(255,255,255)"/><rect x="0" y="118" width="480" height="1" fill="rgb(255,255,255)"/><rect x="0" y="119" width="480" height="1" fill="rgb(255,255,255)"/><rect x="0" y="120" width="480" height="1" fill="rgb(255,255,255)"/><rect x="0" y="121" width="480" height="1" fill="rgb(255,255,255)"/><rect x="0" y="122" width="480" height="1" fill="rgb(255,255,255)"/><rect x="0" y="123" width="480" height="1" fill="rgb(255,255,255)"/><rect x="0" y="124" width="480" height="1" fill="rgb(255,255,255)"/><rect x="0" y="125" width="480" height="1" fill="rgb(255,255,255)"/><rect x="0" y="126" width="480" height="1" fill="rgb(255,255,255)"/><rect x="0" y="127" width="480" height="1" fill="rgb(255,255,255)"/><rect x="0" y="128" width="480" height="1" fill="rgb(255,255,255)"/><rect x="0" y="129" width="480" height="1" fill="rgb(255,255,255)"/><rect x="0" y="130" width="480" height="1" fill="rgb(255,255,255)"/><rect x="0" y="131" width="480" height="1" fill="rgb(255,255,255)"/><rect x="0" y="132" width="480" height="1" fill="rgb(255,255,255)"/><rect x="0" y="133" width="480" height="1" fill="rgb(255,255,255)"/><rect x="0" y="134" width="480" height="1" fill="rgb(255,255,255)"/><rect x="0" y="135" width="480" height="1" fill="rgb(255,255,255)"/><rect x="0" y="136" width="480" height="1" fill="rgb(255,255,255)"/><rect x="0" y="137" width="480" height="1" fill="rgb(255,255,255)"/><rect x="0" y="138" width="480" height="1" fill="rgb(255,255,255)"/><rect x="0" y="139" width="480" height="1" fill="rgb(255,255,255)"/><rect x="0" y="140" width="480" height="1" fill="rgb(255,255,255)"/><rect x="0" y="141" width="480" height="1" fill="rgb(255,255,255)"/><rect x="0" y="142" width="480" height="1" fill="rgb(255,255,255)"/><rect x="0" y="143" width="480" height="1" fill="rgb(255,255,255)"/><rect x="0" y="144" width="480" height="1" fill="rgb(255,255,255)"/><rect x="0" y="145" width="480" height="1" fill="rgb(255,255,255)"/><rect x="0" y="146" width="480" height="1" fill="rgb(255,255,255)"/><rect x="0" y="147" width="480" height="1" fill="rgb(255,255,255)"/><rect x="0" y="148" width="480" height="1" fill="rgb(255,255,255)"/><rect x="0" y="149" width="480" height="1" fill="rgb(255,255,255)"/><rect x="0" y="150" width="183" height="1" fill="rgb(255,255,255)"/><rect x="183" y="150" width="1" height="1" fill="rgb(249,115,22)"/><rect x="184" y="150" width="296" height="1" fill="rgb(255,255,255)"/><rect x="0" y="151" width="182" height="1" fill="rgb(255,255,255)"/><rect x="182" y="151" width="1" height="1" fill="rgb(249,115,22)"/><rect x="183" y="151" width="1" height="1" fill="rgb(255,255,255)"/><rect x="184" y="151" width="1" height="1" fill="rgb(249,115,22)"/><rect x="185" y="151" width="295" height="1" fill="rgb(255,255,255)"/><rect x="0" y="152" width="182" height="1" fill="rgb(255,255,255)"/><rect x="182" y="152" width="2" height="1" fill="rgb(249,115,22)"/><rect x="184" y="152" width="3" height="1" fill="rgb(255,255,255)"/><rect x="187" y="152" width="2" height="1" fill="rgb(249,115,22)"/><rect x="189" y="152" width="291" height="1" fill="rgb(255,255,255)"/><rect x="0" y="153" width="181" height="1" fill="rgb(255,255,255)"/><rect x="181" y="153" width="1" height="1" fill="rgb(249,115,22)"/><rect x="182" y="153" width="1" height="1" fill="rgb(255,255,255)"/><rect x="183" y="153" width="4" height="1" fill="rgb(249,115,22)"/><rect x="187" y="153" width="293" height="1" fill="rgb(255,255,255)"/><rect x="0" y="154" width="181" height="1" fill="rgb(255,255,255)"/><rect x="181" y="154" width="3" height="1" fill="rgb(249,115,22)"/><rect x="184" y="154" width="296" height="1" fill="rgb(255,255,255)"/><rect x="0" y="155" width="180" height="1" fill="rgb(255,255,255)"/><rect x="180" y="155" width="6" height="1" fill="rgb(249,115,22)"/><rect x="186" y="155" width="294" height="1" fill="rgb(255,255,255)"/><rect x="0" y="156" width="180" height="1" fill="rgb(255,255,255)"/><rect x="180" y="156" width="3" height="1" fill="rgb(249,115,22)"/><rect x="183" y="156" width="297" height="1" fill="rgb(255,255,255)"/><rect x="0" y="157" width="180" height="1" fill="rgb(255,255,255)"/><rect x="180" y="157" width="1" height="1" fill="rgb(249,115,22)"/><rect x="181" y="157" width="1" height="1" fill="rgb(255,255,255)"/><rect x="182" y="157" width="1" height="1" fill="rgb(249,115,22)"/><rect x="183" y="157" width="297" height="1" fill="rgb(255,255,255)"/><rect x="0" y="158" width="182" height="1" fill="rgb(255,255,255)"/><rect x="182" y="158" width="1" height="1" fill="rgb(249,115,22)"/><rect x="183" y="158" width="297" height="1" fill="rgb(255,255,255)"/><rect x="0" y="159" width="480" height="1" fill="rgb(255,255,255)"/><rect x="0" y="160" width="480" height="1" fill="rgb(255,255,255)"/><rect x="0" y="161" width="480" height="1" fill="rgb(255,255,255)"/><rect x="0" y="162" width="480" height="1" fill="rgb(255,255,255)"/><rect x="0" y="163" width="480" height="1" fill="rgb(255,255,255)"/><rect x="0" y="164" width="480" height="1" fill="rgb(255,255,255)"/><rect x="0" y="165" width="480" height="1" fill="rgb(255,255,255)"/><rect x="0" y="166" width="480" height="1" fill="rgb(255,255,255)"/><rect x="0" y="167" width="480" height="1" fill="rgb(255,255,255)"/><rect x="0" y="168" width="480" height="1" fill="rgb(255,255,255)"/><rect x="0" y="169" width="480" height="1" fill="rgb(255,255,255)"/><rect x="0" y="170" width="480" height="1" fill="rgb(255,255,255)"/><rect x="0" y="171" width="480" height="1" fill="rgb(255,255,255)"/><rect x="0" y="172" width="480" height="1" fill="rgb(255,255,255)"/><rect x="0" y="173" width="480" height="1" fill="rgb(255,255,255)"/><rect x="0" y="174" width="480" height="1" fill="rgb(255,255,255)"/><rect x="0" y="175" width="480" height="1" fill="rgb(255,255,255)"/><rect x="0" y="176" width="480" height="1" fill="rgb(255,255,255)"/><rect x="0" y="177" width="480" height="1" fill="rgb(255,255,255)"/><rect x="0" y="178" width="480" height="1" fill="rgb(255,255,255)"/><rect x="0" y="179" width="480" height="1" fill="rgb(255,255,255)"/><rect x="0" y="180" width="480" height="1" fill="rgb(255,255,255)"/><rect x="0" y="181" width="480" height="1" fill="rgb(255,255,255)"/><rect x="0" y="182" width="480" height="1" fill="rgb(255,255,255)"/><rect x="0" y="183" width="480" height="1" fill="rgb(255,255,255)"/><rect x="0" y="184" width="480" height="1" fill="rgb(255,255,255)"/><rect x="0" y="185" width="480" height="1" fill="rgb(255,255,255)"/><rect x="0" y="186" width="480" height="1" fill="rgb(255,255,255)"/><rect x="0" y="187" width="480" height="1" fill="rgb(255,255,255)"/><rect x="0" y="188" width="480" height="1" fill="rgb(255,255,255)"/><rect x="0" y="189" width="480" height="1" fill="rgb(255,255,255)"/><rect x="0" y="190" width="480" height="1" fill="rgb(255,255,255)"/><rect x="0" y="191" width="480" height="1" fill="rgb(255,255,255)"/><rect x="0" y="192" width="480" height="1" fill="rgb(255,255,255)"/><rect x="0" y="193" width="480" height="1" fill="rgb(255,255,255)"/><rect x="0" y="194" width="480" height="1" fill="rgb(255,255,255)"/><rect x="0" y="195" width="480" height="1" fill="rgb(255,255,255)"/><rect x="0" y="196" width="480" height="1" fill="rgb(255,255,255)"/><rect x="0" y="197" width="480" height="1" fill="rgb(255,255,255)"/><rect x="0" y="198" width="480" height="1" fill="rgb(255,255,255)"/><rect x="0" y="199" width="480" height="1" fill="rgb(255,255,255)"/><rect x="0" y="200" width="480" height="1" fill="rgb(255,255,255)"/><rect x="0" y="201" width="480" height="1" fill="rgb(255,255,255)"/><rect x="0" y="202" width="480" height="1" fill="rgb(255,255,255)"/><rect x="0" y="203" width="480" height="1" fill="rgb(255,255,255)"/><rect x="0" y="204" width="480" height="1" fill="rgb(255,255,255)"/><rect x="0" y="205" width="480" height="1" fill="rgb(255,255,255)"/><rect x="0" y="206" width="480" height="1" fill="rgb(255,255,255)"/><rect x="0" y="207" width="480" height="1" fill="rgb(255,255,255)"/><rect x="0" y="208" width="480" height="1" fill="rgb(255,255,255)"/><rect x="0" y="209" width="480" height="1" fill="rgb(255,255,255)"/><rect x="0" y="210" width="480" height="1" fill="rgb(255,255,255)"/><rect x="0" y="211" width="480" height="1" fill="rgb(255,255,255)"/><rect x="0" y="212" width="480" height="1" fill="rgb(255,255,255)"/><rect x="0" y="213" width="480" height="1" fill="rgb(255,255,255)"/><rect x="0" y="214" width="480" height="1" fill="rgb(255,255,255)"/><rect x="0" y="215" width="480" height="1" fill="rgb(255,255,255)"/><rect x="0" y="216" width="480" height="1" fill="rgb(255,255,255)"/><rect x="0" y="217" width="480" height="1" fill="rgb(255,255,255)"/><rect x="0" y="218" width="480" height="1" fill="rgb(255,255,255)"/><rect x="0" y="219" width="480" height="1" fill="rgb(255,255,255)"/><rect x="0" y="220" width="480" height="1" fill="rgb(255,255,255)"/><rect x="0" y="221" width="480" height="1" fill="rgb(255,255,255)"/><rect x="0" y="222" width="480" height="1" fill="rgb(255,255,255)"/><rect x="0" y="223" width="480" height="1" fill="rgb(255,255,255)"/><rect x="0" y="224" width="480" height="1" fill="rgb(255,255,255)"/><rect x="0" y="225" width="480" height="1" fill="rgb(255,255,255)"/><rect x="0" y="226" width="480" height="1" fill="rgb(255,255,255)"/><rect x="0" y="227" width="480" height="1" fill="rgb(255,255,255)"/><rect x="0" y="228" width="480" height="1" fill="rgb(255,255,255)"/><rect x="0" y="229" width="480" height="1" fill="rgb(255,255,255)"/><rect x="0" y="230" width="480" height="1" fill="rgb(255,255,255)"/><rect x="0" y="231" width="480" height="1" fill="rgb(255,255,255)"/><rect x="0" y="232" width="480" height="1" fill="rgb(255,255,255)"/><rect x="0" y="233" width="480" height="1" fill="rgb(255,255,255)"/><rect x="0" y="234" width="480" height="1" fill="rgb(255,255,255)"/><rect x="0" y="235" width="480" height="1" fill="rgb(255,255,255)"/><rect x="0" y="236" width="480" height="1" fill="rgb(255,255,255)"/><rect x="0" y="237" width="480" height="1" fill="rgb(255,255,255)"/><rect x="0" y="238" width="480" height="1" fill="rgb(255,255,255)"/><rect x="0" y="239" width="480" height="1" fill="rgb(255,255,255)"/><rect x="0" y="240" width="480" height="1" fill="rgb(255,255,255)"/><rect x="0" y="241" width="480" height="1" fill="rgb(255,255,255)"/><rect x="0" y="242" width="480" height="1" fill="rgb(255,255,255)"/><rect x="0" y="243" width="480" height="1" fill="rgb(255,255,255)"/><rect x="0" y="244" width="480" height="1" fill="rgb(255,255,255)"/><rect x="0" y="245" width="480" height="1" fill="rgb(255,255,255)"/><rect x="0" y="246" width="480" height="1" fill="rgb(255,255,255)"/><rect x="0" y="247" width="480" height="1" fill="rgb(255,255,255)"/><rect x="0" y="248" width="480" height="1" fill="rgb(255,255,255)"/><rect x="0" y="249" width="480" height="1" fill="rgb(255,255,255)"/><rect x="0" y="250" width="480" height="1" fill="rgb(255,255,255)"/><rect x="0" y="251" width="480" height="1" fill="rgb(255,255,255)"/><rect x="0" y="252" width="480" height="1" fill="rgb(255,255,255)"/><rect x="0" y="253" width="480" height="1" fill="rgb(255,255,255)"/><rect x="0" y="254" width="480" height="1" fill="rgb(255,255,255)"/><rect x="0" y="255" width="480" height="1" fill="rgb(255,255,255)"/><rect x="0" y="256" width="480" height="1" fill="rgb(255,255,255)"/><rect x="0" y="257" width="480" height="1" fill="rgb(255,255,255)"/><rect x="0" y="258" width="480" height="1" fill="rgb(255,255,255)"/><rect x="0" y="259" width="480" height="1" fill="rgb(255,255,255)"/><rect x="0" y="260" width="480" height="1" fill="rgb(255,255,255)"/><rect x="0" y="261" width="480" height="1" fill="rgb(255,255,255)"/><rect x="0" y="262" width="480" height="1" fill="rgb(255,255,255)"/><rect x="0" y="263" width="480" height="1" fill="rgb(255,255,255)"/><rect x="0" y="264" width="480" height="1" fill="rgb(255,255,255)"/><rect x="0" y="265" width="480" height="1" fill="rgb(255,255,255)"/><rect x="0" y="266" width="480" height="1" fill="rgb(255,255,255)"/><rect x="0" y="267" width="480" height="1" fill="rgb(255,255,255)"/><rect x="0" y="268" width="480" height="1" fill="rgb(255,255,255)"/><rect x="0" y="269" width="480" height="1" fill="rgb(255,255,255)"/><rect x="0" y="270" width="480" height="1" fill="rgb(255,255,255)"/><rect x="0" y="271" width="480" height="1" fill="rgb(255,255,255)"/><rect x="0" y="272" width="480" height="1" fill="rgb(255,255,255)"/><rect x="0" y="273" width="480" height="1" fill="rgb(255,255,255)"/><rect x="0" y="274" width="480" height="1" fill="rgb(255,255,255)"/><rect x="0" y="275" width="480" height="1" fill="rgb(255,255,255)"/><rect x="0" y="276" width="480" height="1" fill="rgb(255,255,255)"/><rect x="0" y="277" width="480" height="1" fill="rgb(255,255,255)"/><rect x="0" y="278" width="480" height="1" fill="rgb(255,255,255)"/><rect x="0" y="279" width="480" height="1" fill="rgb(255,255,255)"/><rect x="0" y="280" width="480" height="1" fill="rgb(255,255,255)"/><rect x="0" y="281" width="480" height="1" fill="rgb(255,255,255)"/><rect x="0" y="282" width="480" height="1" fill="rgb(255,255,255)"/><rect x="0" y="283" width="480" height="1" fill="rgb(255,255,255)"/><rect x="0" y="284" width="480" height="1" fill="rgb(255,255,255)"/><rect x="0" y="285" width="480" height="1" fill="rgb(255,255,255)"/><rect x="0" y="286" width="480" height="1" fill="rgb(255,255,255)"/><rect x="0" y="287" width="480" height="1" fill="rgb(255,255,255)"/><rect x="0" y="288" width="480" height="1" fill="rgb(255,255,255)"/><rect x="0" y="289" width="480" height="1" fill="rgb(255,255,255)"/><rect x="0" y="290" width="480" height="1" fill="rgb(255,255,255)"/><rect x="0" y="291" width="480" height="1" fill="rgb(255,255,255)"/><rect x="0" y="292" width="480" height="1" fill="rgb(255,255,255)"/><rect x="0" y="293" width="480" height="1" fill="rgb(255,255,255)"/><rect x="0" y="294" width="480" height="1" fill="rgb(255,255,255)"/><rect x="0" y="295" width="480" height="1" fill="rgb(255,255,255)"/><rect x="0" y="296" width="480" height="1" fill="rgb(255,255,255)"/><rect x="0" y="297" width="480" height="1" fill="rgb(255,255,255)"/><rect x="0" y="298" width="480" height="1" fill="rgb(255,255,255)"/><rect x="0" y="299" width="480" height="1" fill="rgb(255,255,255)"/><rect x="0" y="300" width="480" height="1" fill="rgb(255,255,255)"/><rect x="0" y="301" width="480" height="1" fill="rgb(255,255,255)"/><rect x="0" y="302" width="480" height="1" fill="rgb(255,255,255)"/><rect x="0" y="303" width="480" height="1" fill="rgb(255,255,255)"/><rect x="0" y="304" width="480" height="1" fill="rgb(255,255,255)"/><rect x="0" y="305" width="480" height="1" fill="rgb(255,255,255)"/><rect x="0" y="306" width="480" height="1" fill="rgb(255,255,255)"/><rect x="0" y="307" width="480" height="1" fill="rgb(255,255,255)"/><rect x="0" y="308" width="480" height="1" fill="rgb(255,255,255)"/><rect x="0" y="309" width="480" height="1" fill="rgb(255,255,255)"/><rect x="0" y="310" width="480" height="1" fill="rgb(255,255,255)"/><rect x="0" y="311" width="480" height="1" fill="rgb(255,255,255)"/><rect x="0" y="312" width="480" height="1" fill="rgb(255,255,255)"/><rect x="0" y="313" width="480" height="1" fill="rgb(255,255,255)"/><rect x="0" y="314" width="480" height="1" fill="rgb(255,255,255)"/><rect x="0" y="315" width="480" height="1" fill="rgb(255,255,255)"/><rect x="0" y="316" width="480" height="1" fill="rgb(255,255,255)"/><rect x="0" y="317" width="480" height="1" fill="rgb(255,255,255)"/><rect x="0" y="318" width="480" height="1" fill="rgb(255,255,255)"/><rect x="0" y="319" width="480" height="1" fill="rgb(255,255,255)"/><rect x="0" y="320" width="480" height="1" fill="rgb(255,255,255)"/><rect x="0" y="321" width="480" height="1" fill="rgb(255,255,255)"/><rect x="0" y="322" width="480" height="1" fill="rgb(255,255,255)"/><rect x="0" y="323" width="480" height="1" fill="rgb(255,255,255)"/><rect x="0" y="324" width="480" height="1" fill="rgb(255,255,255)"/><rect x="0" y="325" width="480" height="1" fill="rgb(255,255,255)"/><rect x="0" y="326" width="480" height="1" fill="rgb(255,255,255)"/><rect x="0" y="327" width="480" height="1" fill="rgb(255,255,255)"/><rect x="0" y="328" width="480" height="1" fill="rgb(255,255,255)"/><rect x="0" y="329" width="480" height="1" fill="rgb(255,255,255)"/><rect x="0" y="330" width="480" height="1" fill="rgb(255,255,255)"/><rect x="0" y="331" width="480" height="1" fill="rgb(255,255,255)"/><rect x="0" y="332" width="480" height="1" fill="rgb(255,255,255)"/><rect x="0" y="333" width="480" height="1" fill="rgb(255,255,255)"/><rect x="0" y="334" width="480" height="1" fill="rgb(255,255,255)"/><rect x="0" y="335" width="480" height="1" fill="rgb(255,255,255)"/><rect x="0" y="336" width="480" height="1" fill="rgb(255,255,255)"/><rect x="0" y="337" width="480" height="1" fill="rgb(255,255,255)"/><rect x="0" y="338" width="480" height="1" fill="rgb(255,255,255)"/><rect x="0" y="339" width="480" height="1" fill="rgb(255,255,255)"/><rect x="0" y="340" width="480" height="1" fill="rgb(255,255,255)"/><rect x="0" y="341" width="480" height="1" fill="rgb(255,255,255)"/><rect x="0" y="342" width="480" height="1" fill="rgb(255,255,255)"/><rect x="0" y="343" width="480" height="1" fill="rgb(255,255,255)"/><rect x="0" y="344" width="480" height="1" fill="rgb(255,255,255)"/><rect x="0" y="345" width="480" height="1" fill="rgb(255,255,255)"/><rect x="0" y="346" width="480" height="1" fill="rgb(255,255,255)"/><rect x="0" y="347" width="480" height="1" fill="rgb(255,255,255)"/><rect x="0" y="348" width="480" height="1" fill="rgb(255,255,255)"/><rect x="0" y="349" width="480" height="1" fill="rgb(255,255,255)"/><rect x="0" y="350" width="480" height="1" fill="rgb(255,255,255)"/><rect x="0" y="351" width="480" height="1" fill="rgb(255,255,255)"/><rect x="0" y="352" width="480" height="1" fill="rgb(255,255,255)"/><rect x="0" y="353" width="480" height="1" fill="rgb(255,255,255)"/><rect x="0" y="354" width="480" height="1" fill="rgb(255,255,255)"/><rect x="0" y="355" width="480" height="1" fill="rgb(255,255,255)"/><rect x="0" y="356" width="480" height="1" fill="rgb(255,255,255)"/><rect x="0" y="357" width="480" height="1" fill="rgb(255,255,255)"/><rect x="0" y="358" width="480" height="1" fill="rgb(255,255,255)"/><rect x="0" y="359" width="480" height="1" fill="rgb(255,255,255)"/></svg>